<svg xmlns="http://www.w3.org/2000/svg" xml:space="preserve" id="svg1" width="800" height="800" version="1.1" viewBox="0 0 59.793 59.793"><g id="layer1" transform="translate(-68.992 -115.266)"><g id="g2" transform="matrix(1.25877 0 0 1.2491 -26.756 -35.487)"><path id="path2-3" d="M112.582 129.752c5.096.536 9.345 5.033 10.595 11.212.26 1.282.337 2.104.337 3.59.001 1.403-.064 2.151-.297 3.4-.853 4.592-3.522 8.515-7.017 10.315-1.541.794-2.878 1.12-4.587 1.117-1.247-.002-1.839-.093-2.998-.465-2.586-.83-4.942-2.799-6.52-5.448-.413-.692-.495-.955-.416-1.317a1.5 1.5 0 0 1 .139-.38c.094-.15 3.05-2.674 8.402-7.208-2.756-2.453-5.673-4.628-8.375-7.179a1.08 1.08 0 0 1-.168-.897c.03-.128.184-.452.342-.72 1.87-3.184 4.71-5.313 7.866-5.9.757-.14 1.982-.195 2.697-.12m-1.847 1.979c-2.101.23-4.094 1.247-5.733 2.927-.389.398-1.2 1.41-1.363 1.699l-.096.172c2.858 2.54 5.876 4.803 8.685 7.431.244.39.215.95-.065 1.284-.338.401-8.537 7.237-8.566 7.396-.02.114.718 1.093 1.25 1.658 4.238 4.5 10.47 4.113 14.287-.886 2.776-3.635 3.594-8.94 2.1-13.618-1.679-5.26-5.973-8.557-10.5-8.063" style="fill:#000;stroke-width:3.32126px"/><path id="path2-3-0" d="M87.048 129.752c-5.096.536-9.345 5.033-10.595 11.212-.26 1.282-.337 2.104-.337 3.59-.001 1.403.064 2.151.297 3.4.854 4.592 3.522 8.515 7.017 10.315 1.542.794 2.878 1.12 4.587 1.117 1.247-.002 1.839-.093 2.999-.465 2.585-.83 4.941-2.799 6.52-5.448.412-.692.494-.955.415-1.317a1.5 1.5 0 0 0-.139-.38c-.093-.15-3.05-2.674-8.402-7.208 2.756-2.453 5.674-4.628 8.375-7.179.183-.25.245-.575.168-.897-.03-.128-.184-.452-.342-.72-1.87-3.184-4.71-5.313-7.866-5.9-.757-.14-1.982-.195-2.697-.12m1.847 1.979c2.101.23 4.094 1.247 5.734 2.927.388.398 1.2 1.41 1.362 1.699l.096.172c-2.858 2.54-5.876 4.803-8.685 7.431-.244.39-.215.95.065 1.284.338.401 8.537 7.237 8.566 7.396.02.114-.718 1.093-1.25 1.658-4.238 4.5-10.47 4.113-14.286-.886-2.776-3.635-3.595-8.94-2.102-13.618 1.68-5.26 5.974-8.557 10.5-8.063" style="fill:#000;stroke-width:3.32126px"/></g><path id="path1-4-7-2" d="M128.021 128.997q-.06-1.946-.37-3.309c-.603-2.666-1.955-4.119-4.485-4.823-.983-.274-2.187-.441-3.66-.51-.674-.03-1.279-.034-6.898-.034-6.299 0-6.707-.003-7.544-.057-1.063-.07-1.89-.218-2.572-.46-1.362-.485-2.276-1.415-2.944-2.998-.183-.436-.32-.834-.5-1.46l-.013-.044h-.15l-.013.044c-.485 1.68-1.068 2.767-1.891 3.518-.98.896-2.287 1.31-4.47 1.417l-.455.023c-.056.003-3.143.012-6.86.016-4.68.009-6.825.013-6.98.02-.385.021-.613.037-.839.055-3.606.287-5.637 1.422-6.681 3.734-.549 1.216-.849 2.798-.938 4.97l-.013.257.071.066c.04.036.075.064.077.06 0-.002.027-.12.054-.262.434-2.295 1.294-3.78 2.714-4.69.772-.493 1.711-.825 2.904-1.025.566-.095 1.088-.147 2.016-.204.156-.01 2.114-.013 6.923-.02 6.664-.01 6.843-.01 7.55-.046 1.56-.083 2.668-.303 3.584-.715a4.8 4.8 0 0 0 1.772-1.326c.608-.723 1.087-1.715 1.416-2.927l.063-.236c.004-.016.021-.02.07-.02.07 0 .056-.029.127.228.238.85.585 1.662.97 2.264.904 1.41 2.168 2.188 4.122 2.53.677.12 1.339.181 2.44.227.225.01 2.236.014 6.827.02 4.707.01 6.568.013 6.725.021 1.411.086 2.315.226 3.225.495a7.3 7.3 0 0 1 1.75.778c.433.276.844.627 1.17 1.002.786.9 1.307 2.152 1.527 3.672.04.276.026.256.116.176.057-.05.076-.074.073-.096a8 8 0 0 0-.012-.332z" style="fill:#000;stroke:none;stroke-width:.0012095px"/><path id="path1-4-7-2-3" d="M128.021 161.328q-.06 1.945-.37 3.31c-.604 2.665-1.955 4.118-4.485 4.822-.983.274-2.187.441-3.66.51-.674.03-1.279.034-6.898.034-6.299 0-6.707.003-7.544.057-1.064.07-1.89.218-2.572.46-1.362.485-2.276 1.415-2.944 2.998-.183.436-.32.834-.5 1.46l-.013.044h-.15l-.013-.044c-.485-1.68-1.068-2.767-1.891-3.518-.98-.895-2.287-1.31-4.47-1.417l-.455-.022c-.056-.003-3.143-.013-6.86-.016-4.68-.01-6.825-.014-6.98-.021a27 27 0 0 1-.839-.055c-3.606-.287-5.637-1.422-6.681-3.734-.549-1.216-.848-2.798-.938-4.97l-.013-.258.071-.065a.3.3 0 0 1 .077-.06c0 .001.027.12.054.262.434 2.295 1.294 3.78 2.714 4.69.772.493 1.711.825 2.904 1.025.566.095 1.088.147 2.016.204.156.01 2.114.013 6.923.02 6.664.01 6.843.01 7.55.046 1.56.083 2.668.303 3.584.714a4.8 4.8 0 0 1 1.772 1.326c.608.724 1.087 1.716 1.416 2.928l.063.236c.004.016.021.02.07.02.07 0 .056.029.127-.229.238-.85.585-1.662.97-2.263.904-1.41 2.168-2.188 4.122-2.531.677-.12 1.339-.18 2.44-.226.225-.01 2.236-.014 6.827-.021 4.707-.01 6.568-.013 6.725-.02 1.411-.086 2.315-.226 3.225-.496a7.3 7.3 0 0 0 1.75-.777 5.5 5.5 0 0 0 1.17-1.003c.786-.9 1.307-2.151 1.527-3.671.04-.276.026-.256.116-.176.057.049.076.074.073.096 0 .016-.003.164-.012.331z" style="fill:#000;stroke:none;stroke-width:.0012095px"/><ellipse id="path3" cx="84.089" cy="135.38" rx=".612" ry=".532" style="opacity:1;fill:#000;fill-opacity:0;stroke:#000;stroke-width:1.85581px;stroke-opacity:1"/><ellipse id="path3-3" cx="93.886" cy="145.072" rx=".612" ry=".532" style="fill:#000;fill-opacity:1;stroke:#000;stroke-width:1.85581px;stroke-opacity:1"/><ellipse id="path3-9" cx="103.793" cy="145.072" rx=".612" ry=".532" style="fill:#000;fill-opacity:1;stroke:#000;stroke-width:1.85581px;stroke-opacity:1"/><ellipse id="path3-20" cx="98.839" cy="145.072" rx=".612" ry=".532" style="fill:#000;fill-opacity:1;stroke:#000;stroke-width:1.85581px;stroke-opacity:1"/><ellipse id="path3-2" cx="113.378" cy="135.38" rx=".612" ry=".532" style="fill:#000;fill-opacity:0;stroke:#000;stroke-width:1.85581px;stroke-opacity:1"/></g></svg>